<svg width="34" height="35" viewBox="0 0 34 35" fill="none" xmlns="http://www.w3.org/2000/svg">
<path d="M30.5325 4.07582C29.7506 3.16169 28.8222 2.43653 27.8004 1.94178C26.7786 1.44703 25.6834 1.19238 24.5774 1.19238C23.4714 1.19238 22.3762 1.44703 21.3544 1.94178C20.3326 2.43653 19.4042 3.16169 18.6223 4.07582L16.9996 5.97208L15.3769 4.07582C13.7975 2.2302 11.6554 1.19334 9.42177 1.19334C7.18818 1.19334 5.04607 2.2302 3.46668 4.07582C1.88729 5.92144 1 8.42464 1 11.0347C1 13.6448 1.88729 16.148 3.46668 17.9937L5.0894 19.8899L16.9996 33.8078L28.9098 19.8899L30.5325 17.9937C31.3148 17.08 31.9353 15.9951 32.3587 14.8011C32.7821 13.607 33 12.3272 33 11.0347C33 9.74226 32.7821 8.46245 32.3587 7.26842C31.9353 6.07438 31.3148 4.98952 30.5325 4.07582V4.07582Z" stroke="#FF9900" stroke-width="2" stroke-linecap="round" stroke-linejoin="round"/>
</svg>
